Patient4_TMGait_0pt5_02_left_33_EMG.mot
version=1
nRows=36
nColumns=33
inDegrees=no
endheader
time	1LAddLong	2LGlutMax	3LGlutMed	4LIliopsoas	5LSemiMemb	6LBicFemLong	7LRecFem	8LVastMed	9LVastLat	10LGasMed	11LTibAnt	12lTibPost	13LPeroneusLong	14LSol	15LExtDigLong	16LFlexDigLong	17RAddLong	18RGlutMax	19RGlutMed	20RIliopsoas	21RSemiMemb	22RBicFemLong	23RRecFem	24RVastMed	25RVastLat	26RGasMed	27RTibAnt	28RTibPost	29RPeroneusLong	30RSol	31RExtDigLong	32RFlexDigLong
42.52	0.018768	0.08194	-0.026093	0.013428	0.019989	-0.058594	-0.029755	-0.001068	0.064697	-0.063782	0.000153	-0.006256	0.12604	-0.056458	-0.0177	-0.007782	0.002136	-0.068512	0.000153	-0.058746	-0.1506	0.03891	0.001831	-0.023499	0.038757	-0.067139	0.86166	-0.09491	-0.53436	-0.37201	-0.005646	-0.011139
42.521	0.008698	0.097961	-0.042725	0.00885	0.054779	-0.028229	-0.025482	0.000153	0.057831	-0.02655	0.004272	0.008087	0.12558	-0.036926	-0.03067	-0.008392	0.024872	-0.062866	0.18555	0.02243	-0.24719	0.032196	0.044556	-0.070801	0.021057	-0.13489	1.2535	-0.075684	-0.5661	-0.12817	-0.003967	-0.00824
42.522	-0.000458	0.10132	-0.047913	0.015869	0.064545	-0.00946	-0.015717	-0.00351	0.065613	0.001984	0.007629	0.010223	0.11719	-0.033112	-0.03006	-0.006714	0.027161	-0.050201	0.088348	0.13718	-0.16235	0.039063	0.079803	-0.018768	0.002441	-0.13092	1.1029	0.081482	-0.34347	-0.83359	-0.003967	-0.005798
42.523	0.009918	0.10651	-0.051117	0.00824	0.006714	-0.014191	-0.023499	0.00061	0.059204	0.045776	0.010986	-0.016022	0.092621	-0.009613	-0.034637	-0.00473	0.008392	-0.018005	0.17777	0.13306	0.25055	0.041351	0.11215	0.001831	0.008087	-0.10864	0.84686	0.18036	-0.002289	-1.071	-0.00351	0.002441
42.524	0.011139	0.089264	-0.055847	0.013123	-0.024872	-0.056915	-0.001526	-0.001984	0.061035	0.060577	0.007477	-0.007477	0.070343	-0.005493	-0.020905	-0.013428	0.018463	-0.022125	0.14526	0.094299	0.14404	0.049744	0.095825	-0.027771	-0.019531	-0.098724	0.12711	0.13397	0.38971	-0.93628	-0.002289	-0.007782
42.525	0.005646	0.079498	-0.06485	-0.005035	0.007019	-0.058899	0.010223	-0.002747	0.055542	0.030975	0.007935	-0.005951	0.055847	0.013275	-0.005798	-0.00946	0.010681	-0.028992	-0.005951	0.053101	0.086517	0.05188	0.04715	0.016632	-0.022125	-0.10376	-1.3467	0.027924	0.63858	-0.70664	-0.003204	-0.008545
42.526	0.004272	0.10101	-0.092316	-0.007782	0.010986	-0.045776	0.011444	0.003815	0.060577	0.007324	0.007477	0.000916	0.058594	0.039063	-0.007477	-0.018005	-0.004425	0.002441	0.10284	-0.015106	0.082855	0.069885	-0.053558	0.029907	0.017395	-0.028839	-1.4821	0.031586	0.67444	-0.6871	-0.004425	-0.00824
42.527	0.007629	0.11719	-0.090027	0.020294	-0.001984	-0.053253	-0.018005	0.000153	0.053558	-0.003052	0.019836	-0.00824	0.059509	0.027618	-0.002747	-0.011597	0.005951	-0.038605	-0.079498	0.024872	0.11139	0.098114	-0.031738	-0.019379	0.026703	0.07431	-0.93735	-0.035248	0.30045	0.38849	-0.002441	-0.003357
42.528	-0.003815	0.10559	-0.066681	0.000458	-0.006256	-0.044556	-0.008392	0.003662	0.065613	-0.010986	0.014648	-0.013428	0.025024	-0.021667	-0.004883	-0.014191	-0.001373	0.002899	-0.015564	-0.034485	0.13382	0.040741	-0.030212	0.030212	0.015106	0.070953	-0.41855	-0.02121	0.31281	1.145	-0.002899	-0.000305
42.529	0.002747	0.10437	-0.062714	0.002747	0.012817	-0.033569	-0.007172	-0.003662	0.058899	-0.020142	0.020447	0.009308	-0.006866	-0.027466	0.003967	-0.019989	0.002899	-0.013885	0.1593	-0.078583	0.11093	-0.086212	-0.069427	0.075531	0.03952	-0.014954	-0.40497	0.030823	0.37979	1.2407	-0.002136	-0.002136
42.53	0.004578	0.099182	-0.00946	-0.001526	0.026703	-0.015564	-0.006256	-0.004272	0.056458	-0.036469	0.020752	-0.013428	0.013885	-0.11551	0.00824	-0.011444	0.000305	-0.006714	0.31448	-0.11963	0.091095	-0.13153	-0.058289	0.083923	0.11124	-0.06134	-0.76523	0.1297	0.17441	0.74921	-0.000153	-0.002289
42.531	0.000763	0.058899	-0.031128	-0.000153	-0.005646	-0.025482	0.014343	0.000763	0.059967	-0.046082	0.005798	-0.021515	0.086975	-0.15991	0.006714	-0.01358	0.00885	-0.067444	-0.29434	-0.050659	0.044403	-0.084076	0.033875	0.002899	0.049591	-0.067291	-0.97427	-0.10574	-0.12817	0.53055	-0.001068	-0.001373
42.532	-0.004883	0.055542	-0.037842	0.013733	-0.000305	-0.035706	0.008545	0.001831	0.060425	-0.042877	-0.006866	-0.004272	0.028839	-0.16419	0.006561	-0.018005	0.03067	-0.11368	-0.19867	0.005951	0.003357	-0.04364	0.050354	-0.012054	0.042267	-0.033417	-0.79254	-0.41306	-0.32791	-0.059204	-0.002136	-0.00061
42.533	0.004425	0.080872	-0.031738	0.016174	-0.019073	-0.04837	0.019226	-0.000916	0.068207	-0.036011	0.017853	-0.016022	0.051117	-0.16068	0.005341	-0.019531	0.020599	-0.00351	0.59219	-0.013428	-0.039825	-0.048523	0.076141	-0.033417	0.048065	0.045319	-0.57068	0.15366	-0.1088	0.14603	-0.000458	0.004578
42.534	0.001984	0.077362	-0.040588	0.012817	0.010529	-0.065765	0.006561	-0.000153	0.066528	-0.040436	0.017395	-0.018158	0.072327	-0.12665	0.001678	-0.0177	0.02594	0.099335	0.62622	0.057983	-0.05188	-0.028687	0.14465	-0.030518	0.045776	0.051727	0.047455	0.079041	0.28671	0.24445	-0.00061	0.006409
42.535	0.010223	0.060883	0.02243	0.010529	0.038757	-0.040588	0.024719	-0.003815	0.062408	-0.032959	0.015411	0.001373	0.063171	-0.076294	0.008087	-0.015717	0.017242	0.09491	0.32455	-0.013123	-0.096741	0.003662	0.19547	-0.067749	0.056305	0.030365	0.65155	0.049744	0.32547	0.10315	-0.001984	0.003815
42.536	0.008087	0.037689	0.013275	0.011749	0.020599	-0.027008	0.038147	0.000153	0.066376	-0.038452	0.039673	0.000763	0.053253	-0.031433	0.000458	-0.014496	0.033875	0.048065	0.062561	-0.1947	-0.046539	0.068207	0.22217	-0.071411	0.014954	0.060883	1.0622	-0.013885	0.17654	0.005188	-0.005341	0.01297
42.537	0.003967	0.00946	0.008087	0.011749	0.001678	-0.022736	0.025482	-0.006561	0.065308	-0.040894	0.002441	-0.019379	0.030975	-0.067444	-0.000916	-0.004578	0.014191	0.038605	0.24353	-0.16113	0.032654	0.082245	-0.040436	-0.073242	-0.031128	0.093079	1.2392	-0.03479	0.14252	-0.66696	-0.007324	0.010376
42.538	-0.000916	0.046082	0.025177	0.004272	-0.026093	-0.027771	0.02243	0.001068	0.059357	-0.042267	-0.00946	-0.015106	0.035095	-0.083313	-0.000305	-0.015717	-0.001221	0.092468	0.27634	-0.016937	0.13138	-0.019226	-0.13138	-0.078278	-0.036011	0.070648	0.27786	0.094452	0.19501	-0.80063	-0.002136	0.007324
42.539	0.003204	0.020752	0.028381	0.02243	-0.043335	-0.045471	0.025482	-0.000763	0.043488	-0.043945	0.01236	-0.006561	0.051727	-0.04364	0.003052	-0.005493	0.012054	0.038605	0.15381	0.10956	0.11658	-0.054321	-0.14603	-0.090332	0.048676	0.14526	0.23804	0.043793	-0.05127	-0.56183	-0.00351	-0.002441
42.54	0.008392	0.0177	-0.025635	0.00351	0.011444	-0.05188	0.031128	-0.00351	0.05188	-0.035248	0.029755	-0.01709	0.05722	-0.022125	0.002594	0.000916	-0.001526	-0.012512	-0.15671	0.25406	0.11673	-0.095673	-0.20538	-0.044708	0.084686	0.05249	0.41214	-0.051422	-0.19775	-0.53024	0.000305	-0.00824
42.541	0.006409	-0.00412	-0.09613	0.008545	0.056458	-0.04837	0.039673	-0.006104	0.052948	-0.036011	0.033112	-0.020905	0.051727	-0.023651	0	0.004272	0.017548	0.028534	0.077057	0.35111	0.058136	-0.091095	-0.31921	0.13184	0.085144	-0.091248	0.62149	-0.090027	-0.29694	-0.23483	-0.002594	-0.00824
42.542	0.009918	-0.003204	-0.090179	0.028381	0.054321	-0.042725	0.032043	-0.005035	0.053864	-0.041351	0.025482	0.008698	0.059967	0.021362	0.007324	-0.004425	0.006104	-0.002441	0.076904	0.13001	-0.039215	-0.019684	-0.26642	0.096893	0.085297	-0.12436	0.30106	-0.030518	-0.17349	-0.46982	-0.010223	-0.016174
42.543	0.005341	-0.018311	-0.034943	0.00412	0.033569	-0.039825	0.038605	-0.003052	0.05127	-0.044556	0.016479	-0.028839	0.033722	0.035248	0.000153	0.006104	-0.014954	0.06485	0.11139	0.041656	-0.10529	0.092926	-0.083466	0.1416	0.065155	-0.17807	0.11353	0.049896	-0.087891	-0.17624	-0.002899	-0.021515
42.544	-0.001373	0.012054	0.002289	-0.008545	0.003815	-0.026245	0.041199	-0.001221	0.049591	-0.045929	0.000916	-0.024414	0.10483	0.00946	-0.006714	0.001221	-0.03479	0.035248	0.23132	0.003967	0.034485	0.1738	0.076599	0.036469	-0.022736	-0.083618	-0.086975	0.044556	0.059052	0.52887	-0.001221	-0.009003
42.545	-0.012512	-0.026093	0.029449	0.005188	-0.006866	-0.014801	0.058899	0.005188	0.034027	-0.033417	0.009918	0.006409	0.10666	-0.014191	-0.012665	-0.009155	-0.007782	-0.000305	0.23209	-0.032501	0.02243	0.16815	0.1831	-0.046234	-0.067444	-0.046387	-0.37048	-0.012207	0.17838	1.1049	0.000916	-0.012512
42.546	-0.001068	-0.036621	-0.033417	0.01236	-0.018311	-0.027771	0.057983	0.001984	0.032196	-0.036774	-0.015869	-0.017395	0.062866	-0.062256	-0.003967	-0.005493	-0.003357	-0.016785	0.13229	-0.015717	-0.11871	0.15121	0.12405	-0.048981	-0.05722	-0.064545	-0.5249	-0.061188	0.18021	0.87708	0.000305	-0.006714
42.547	-0.001984	-0.07309	-0.05249	-0.001984	0	-0.068054	0.042419	0.000763	0.036316	-0.042114	-0.002747	-0.019531	0.060272	-0.11475	-0.005798	-0.003662	0.007935	-0.087891	-0.29373	0.03952	-0.1149	0.097198	0.17303	0.1474	-0.05661	-0.076141	-0.87967	-0.048065	0.18463	0.5098	0.00061	-0.014648
42.548	0.011749	-0.091858	-0.11643	0.001373	0.007629	-0.078125	0.036469	-0.005798	0.039825	-0.041962	-0.016479	-0.012054	0.035706	-0.12741	0.010376	-0.007172	0.009918	-0.095367	-0.35614	0.085449	-0.084686	0.025635	0.10941	0.20905	0.036011	0.021057	-0.81299	-0.022583	0.000763	-0.17487	0.003204	-0.019531
42.549	0.010071	-0.08255	-0.17807	0.014801	-0.01236	-0.059204	0.048065	-0.000916	0.035095	-0.050049	-0.011292	-0.022888	0.043182	-0.080872	0.006561	-0.003815	0.010071	-0.16525	-0.29404	0.096283	-0.10941	-0.002289	-0.09491	0.20218	0.12573	0.069427	-0.93109	-0.010529	-0.051727	-0.76874	0	-0.017548
42.55	0.007629	-0.048676	-0.22827	0.015411	0.041046	-0.015564	0.035248	-0.011444	0.03067	-0.055237	0.024109	-0.003967	-0.011444	-0.028687	0.005035	0.002899	-0.006409	-0.1619	-0.20493	-0.030365	-0.010376	-0.014496	-0.13168	0.062256	0.071716	0.1059	-1.06	-0.030823	-0.002899	-0.63812	0.004425	-0.005798
42.551	0.021362	-0.053406	-0.16693	0.009766	0.067139	0.009308	0.060425	-0.010376	0.028381	-0.053101	0.024261	-0.005341	-0.024414	-0.054626	-0.005798	-0.002594	-0.019379	-0.21011	-0.18478	-0.023499	-0.011749	0.021362	0.001831	0.020905	0.061951	0.11017	-0.95383	-0.02243	-0.087738	-0.036621	-0.001678	-0.00824
42.552	0.028992	-0.075531	-0.019379	-0.001831	0.036163	0.007782	0.050964	-0.010834	0.036926	-0.052338	-0.009613	-0.009613	-0.034332	-0.050507	-0.011292	-0.001984	-0.014191	-0.17624	-0.091705	-0.031738	-0.050659	0.090027	-0.17059	0.054474	0.071716	0.065308	-0.31738	0.026703	-0.13382	0.41367	-0.000153	-0.002899
42.553	0.018005	-0.10849	0.021362	-0.004578	0.05188	-0.007019	0.050049	-0.001373	0.024719	-0.039368	-0.002594	-0.010986	-0.001678	-0.061035	-0.006409	-0.01297	0.002899	-0.18066	0.15076	-0.086517	0.094299	0.12344	-0.34561	-0.003052	0.10437	-0.028839	0.089111	0.018921	0.15762	0.41794	0.002899	-0.002747
42.554	0.009308	-0.11078	0.067749	0.001984	0.025635	-0.009918	0.055695	-0.000916	0.021515	-0.048828	0.006256	-0.009308	0.071411	-0.062256	0.003815	0.040131	-0.001984	-0.10193	-0.10635	-0.061493	0.074921	0.033264	-0.20813	0.027161	0.12405	0.003662	0.18082	-0.028992	0.19455	0.44937	0.001831	0.001221
42.555	0.007935	-0.15427	0.034637	-0.002136	0.013885	-0.012817	0.040588	0.000305	0.031281	-0.049744	0.028687	0.000916	-0.047913	-0.061646	-0.002441	0.029907	0.025024	-0.2594	-0.36453	-0.009918	0.16937	-0.00351	-0.032654	-0.001984	0.090332	0.059814	-0.014801	-0.00946	0.19684	0.070801	0.001526	0.002899
